# xmcd
#
# Track frame offsets: 
#        150
#        17217
#        32897
#        41902
#        56222
#        72652
#        87355
#        98047
#        109285
#        124670
#        141285
#        156625
#        171562
#        188157
#        201885
#        216512
#        227520
#        248077
#        264850
#        276992
#        289395
#        304122
#        318910
#        337607
#
# Disc length: 4712 seconds
#
# Revision: 4
# Processed by: cddbd v1.5.2PL0 Copyright (c) Steve Scherf et al.
# Submitted via: ExactAudioCopy v0.99pb3
#
DISCID=78126618
DTITLE=Fritz Kreisler - Original Compositions and Arrangements (EMI 7 64
DTITLE=701 2)
DYEAR=1993
DGENRE=Classical
TTITLE0=Caprice viennois
TTITLE1=Tambourin chinois
TTITLE2=Schon Rosmarin
TTITLE3=La Gitana
TTITLE4=Liebesleid
TTITLE5=Liebesfreud
TTITLE6=Pollchinelle
TTITLE7=Rondino on a theme by Beethoven
TTITLE8=La Precieuse - Couperin
TTITLE9=Chanson Louis XIII and Pavane-Couperin
TTITLE10=Scherzo alla Dittersdord
TTITLE11=Gavotte - Bach
TTITLE12=Londonderry Air - Trad
TTITLE13=Ballet No. 2-Rosamunde-Schubert
TTITLE14=The Old Refrain - Brandl
TTITLE15=Poupee valsante - Poldini
TTITLE16=Andante cantabile - Tchaikovsky
TTITLE17=Humoresque - Dvorak
TTITLE18=Serenade espagnole - Glazunov
TTITLE19=Larghetto - Weber
TTITLE20=Midnight Bells - Heuberger
TTITLE21=Chanson hindoue - Rimsky-Kovsakov
TTITLE22=Lotus Land - Scott
TTITLE23=Danza espanola - Falla
EXTD=
EXTT0=
EXTT1=
EXTT2=
EXTT3=
EXTT4=
EXTT5=
EXTT6=
EXTT7=
EXTT8=
EXTT9=
EXTT10=
EXTT11=
EXTT12=
EXTT13=
EXTT14=
EXTT15=
EXTT16=
EXTT17=
EXTT18=
EXTT19=
EXTT20=
EXTT21=
EXTT22=
EXTT23=
PLAYORDER=
